<?xml version="1.0" encoding="utf-8"?>
<!-- Generator: Adobe Illustrator 26.0.1, SVG Export Plug-In . SVG Version: 6.00 Build 0)  -->
<svg version="1.1" id="Layer_1" xmlns="http://www.w3.org/2000/svg" xmlns:xlink="http://www.w3.org/1999/xlink" x="0px" y="0px"
	 viewBox="0 0 1500 1500" style="enable-background:new 0 0 1500 1500;" xml:space="preserve">
<style type="text/css">
	.st0{fill:#AEEC01;}
	.st1{fill:#FFFFFF;}
</style>
<g>
	<path class="st0" d="M358.67,787.07c-1.49,0.1-3.04,0.21-4.86,0.35v-15.84c0.63-0.35,1.25-0.47,1.48,0.5
		c1.18,4.82,2.33,9.62,3.48,14.44C358.79,786.61,358.73,786.72,358.67,787.07z M366.7,767.03c1.06-7.76-0.1-15.41-3.2-22.94
		l-26.63-1.96c5.08,8.4,5.17,17.34,1.05,26.72C347.53,766.19,357.12,765.58,366.7,767.03z M349.35,771.99
		c-0.88-0.18-0.86,0.51-0.97,1.03c-0.64,2.78-1.27,5.55-1.89,8.32c-0.45,2.03-0.88,4.08-1.35,6.22h4.07
		C349.55,786.43,349.67,773.89,349.35,771.99z M363.49,786.51c-2.67-8.24-5.12-14.55-6.29-15.12c1.21,5.1,2.43,10.2,3.7,15.45
		C361.88,786.71,362.68,786.61,363.49,786.51z M346.46,772.53c-1.17-0.12-1.19,0.7-1.41,1.29c-1.4,3.91-2.78,7.83-4.15,11.75
		c-0.15,0.4-0.22,0.82-0.37,1.37c0.78,0.15,1.43,0.26,2.17,0.38C344.28,782.38,345.44,777.49,346.46,772.53z M367.31,784.21
		c0.68-0.98,1.34-1.99,1.86-3.06c0.65-1.35,1.55-2.08,3.12-2.21c1.97-0.14,3.9-0.58,5.85-0.87v-5.47c-0.47,0.09-0.8,0.11-1.12,0.22
		c-2.85,0.99-5.68,1.99-8.52,3c-0.59,0.22-1.14,0.58-1.74,0.68c-0.45,0.09-1.14,0.03-1.38-0.24c-0.31-0.37-0.4-1.03-0.35-1.54
		c0.05-0.48,0.4-0.92,0.61-1.4c0.2-0.49,0.36-1,0.62-1.67c-2.12-0.16-3.96-0.3-6.14-0.47c1.92,5.03,3.71,9.74,5.62,14.77
		C366.43,785.19,366.94,784.75,367.31,784.21z M400.54,763.07c4.79-1.75,9.54-2.09,14.36-1.71c0.06-0.12,0.1-0.22,0.16-0.34
		c-6-5.83-12.02-11.65-18.01-17.49C398.99,749.91,400.37,756.31,400.54,763.07z M384.06,730.96c-3.14-0.4-6.29-0.68-9.77-1.04
		c1.63,4.01,1.36,7.86,0.39,11.83c4.3-0.59,8.35-0.9,12.25,0.39c0.16-0.19,0.29-0.27,0.3-0.37c0.74-3.48,0.13-6.77-1.7-9.81
		C385.24,731.49,384.58,731.02,384.06,730.96z M418.21,764.84c-4.43-0.74-8.84-0.77-13.22,0.3c-3.17,0.77-6.2,1.84-8.3,4.63
		c-0.79,1.03-1.82,1.88-2.73,2.81c-0.83,0.85-1.66,1.7-2.57,2.64c4.28,0,24.32-7.59,27.08-10.18
		C418.37,764.95,418.3,764.85,418.21,764.84z M333.11,768.85c1.21-3.51,1.93-6.93,2.12-10.48c0.09-1.62-0.35-2.78-1.64-3.85
		c-6.4-5.3-12.74-10.7-19.11-16.05c-0.31-0.27-0.68-0.47-1.24-0.82c1.49,9.94-0.58,18.91-5.83,27.32
		C316.21,765.43,324.71,766.14,333.11,768.85z M361.56,733.84c0.18-0.57,0.32-0.93,0.42-1.31c0.09-0.33,0.15-0.67,0.2-1
		c0.63-3.6-0.33-6.87-2.01-10.01c-0.45-0.85-0.93-1.25-1.93-1.35c-4.24-0.47-8.48-1.03-12.71-1.56c-0.88-0.1-1.75-0.15-2.69-0.23
		c1.71,6.43,1.7,6.93-0.52,14.15C348.94,731.38,355.35,730.82,361.56,733.84z M331.88,771.98c-2.08-0.48-3.95-0.91-5.93-1.37v6.26
		c1.99,0.42,3.87,0.85,5.76,1.22c1.42,0.26,2.36,0.97,2.79,2.4c0.3,1.04,0.77,2.02,1.25,2.99c0.49,1.05,1.25,1.88,2.45,2.54
		c1.83-4.17,3.42-8.33,4.87-12.85c-0.75,0.14-1.29,0.2-1.81,0.35c-2.73,0.82-5.45,1.65-8.17,2.49c-0.68,0.2-1.47,0.42-1.86-0.26
		c-0.26-0.47-0.2-1.19-0.1-1.76C331.25,773.33,331.58,772.75,331.88,771.98z M382.4,771.89v5.25c3.62,0.16,5.82-1.94,7.94-4.51
		C388.18,771.44,384.92,771.15,382.4,771.89z M389.62,753.12c-0.49-1.06-1.1-1.53-2.31-1.56c-5.35-0.12-10.71-0.32-16.06-0.49
		c-0.32-0.02-0.64,0.04-1.19,0.07c3.42,6.46,3.37,12.99,0.88,19.86c6.38-2.32,12.57-3.88,19.06-2.47
		C392.11,763.21,391.95,758.15,389.62,753.12z M321.73,800.23c-0.29-0.11-0.54-0.27-0.76-0.49c-0.25-0.23-0.44-0.53-0.62-0.88
		c-0.76-1.57-1.45-3.16-2.37-5.18c24.02,5.22,47.45,3.6,70.92-2.22c-0.26,0.77-0.56,1.42-0.94,1.94c-0.43,0.7-0.9,1.38-1.42,2.02
		c-0.67,0.82-1.28,1.69-1.94,2.53c-0.51,0.68-1.1,1.38-1.8,1.87l-0.16,0.12c-0.07,0.06-0.16,0.11-0.24,0.15
		c-0.83,0.46-1.77,0.6-2.7,0.7c-0.35,0.1-0.69,0.14-1.05,0.16c-1.54,0.35-3.08,0.71-4.6,1.14c-1,0.29-1.86,0.33-2.77-0.16
		c-0.4-0.21-0.83-0.35-1.25-0.56c-5.97-2.77-11.87-2.27-17.6,0.63c-2.54,1.27-4.9,2.9-7.31,4.41c-1.45,0.91-1.42,0.96-2.82,0.03
		c-3.48-2.29-7.09-4.32-11.23-5.24c-2.64-0.58-5.28-1-7.96-0.78c-0.52,0.04-0.96-0.02-1.35-0.16
		C321.76,800.24,321.74,800.24,321.73,800.23z M334.84,799.47c2.38,2.73,11.5,3.37,14.81,0.94
		C344.64,800.09,339.75,799.79,334.84,799.47z M310.03,778.09c6.15,1.22,12.27,2.5,18.44,3.64c1.28,0.25,2.08,0.75,2.45,1.97
		c0.12,0.38,0.35,0.72,0.52,1.08c1.82,3.9,4.98,6,9.15,6.59c2.31,0.32,4.64,0.59,6.98,0.59c5.42-0.01,10.81-0.53,16.18-1.24
		c4.08-0.54,6.75-2.85,8.61-6.26c0.59-1.1,1.33-1.49,2.5-1.67c7.21-1.1,14.38-2.39,21.45-4.18c0.27-0.07,0.54-0.13,1.06-0.26
		l-3.38,5.14c-0.1,0.29-0.26,0.55-0.43,0.8c-0.04,0.07-0.07,0.14-0.11,0.21c-0.05,0.08-0.11,0.15-0.16,0.22
		c-0.2,0.42-0.44,0.81-0.74,1.17c-0.21,0.26-0.45,0.55-0.73,0.77c-0.84,1.08-2.3,1.64-3.61,1.97c-7.02,1.75-14.08,3.34-21.22,4.47
		c-10.48,1.68-20.99,1.83-31.52,0.46c-6.67-0.87-13.3-1.94-19.84-3.52c-0.55-0.13-1.11-0.28-1.65-0.47
		c-2.17-0.74-3.72-2.01-4.24-4.44c-0.5-2.33-1.22-4.61-1.43-7.27C308.98,777.95,309.5,777.99,310.03,778.09z M324.68,786.2
		c0.52,1.77,1.7,2.98,2.65,2.7c0.95-0.28,1.3-1.94,0.77-3.71c-0.52-1.77-1.7-2.98-2.65-2.7
		C324.51,782.76,324.15,784.43,324.68,786.2z M318.35,784.93c0.52,1.77,1.7,2.98,2.65,2.7c0.96-0.28,1.3-1.94,0.78-3.71
		c-0.53-1.77-1.71-2.98-2.66-2.7C318.18,781.5,317.83,783.16,318.35,784.93z M312.02,783.66c0.52,1.77,1.71,2.98,2.66,2.7
		c0.95-0.28,1.29-1.94,0.77-3.71c-0.52-1.77-1.71-2.98-2.66-2.7C311.84,780.24,311.5,781.89,312.02,783.66z M314.39,774.58
		c0.27,0.05,0.55,0.05,0.98,0.1c0.76-1.79,1.38-3.43,1.64-5.14c-0.69-0.41-1.07-0.19-1.27,0.28c-0.66,1.47-1.28,2.96-1.93,4.47
		C314.1,774.43,314.23,774.55,314.39,774.58z M321.56,775.97v-6.04c-0.82-0.14-1.54-0.26-2.49-0.43c-0.58,1.99-1.09,3.8-1.63,5.69
		C318.95,775.48,320.2,775.71,321.56,775.97z M354.25,692.01v8.15c6.31-1.37,12.9,5.15,15.98,2.05c-1.35-1.95-0.72-5.26,0-8.62
		C363.68,696.03,359.26,690.03,354.25,692.01z M325.59,704.79v3.29c5.42-1.72,9.86,2.75,13.34-0.77
		C333.99,707.86,330.58,702.98,325.59,704.79z M381.66,706.26v4.56c6.75-2.44,11.38,4.63,16.64-0.39
		C392.27,711.69,387.12,703.6,381.66,706.26z"/>
	<g>
		<g>
			<g>
				<g>
					<path class="st1" d="M340.07,728.19c0.97-3.15,0.49-6.28-0.87-9.26c-0.25,0.07-0.35,0.1-0.45,0.16
						c-4.08,2.48-8.17,4.98-12.27,7.44c-0.68,0.41-0.9,0.96-0.88,1.7c0.07,4.5,0.13,9,0.16,13.5c0,0.87,0.32,1.48,0.98,2.04
						c2.15,1.8,4.24,3.64,6.36,5.46c0.28,0.23,0.58,0.42,1.12,0.78c-0.51-2.52-1.34-4.61-2.27-6.69c-0.52-1.17-1.19-2.2-2.47-2.7
						c-0.35-0.13-0.68-0.43-0.91-0.72c-0.7-0.87-0.31-1.99,0.8-2.22c0.54-0.12,1.14-0.12,1.69-0.07c4.1,0.3,8.19,0.65,12.27,0.96
						c2.08,0.16,4.18,0.27,6.23,0.4v-3.68c-3.56-0.01-6.84,0.68-10.15,1.26c-0.79,0.15-1.68,0.8-2.36-0.11
						c-0.71-0.96,0.14-1.7,0.49-2.5C338.4,732.03,339.46,730.18,340.07,728.19z"/>
					<path class="st1" d="M322.07,728.88c-2.89,1.31-5.5,2.5-8.24,3.75c2.07,2.19,6.91,6.14,8,6.52
						C321.91,735.77,322.1,732.43,322.07,728.88z"/>
					<path class="st1" d="M349.77,710.04c-1.85,1.75-3.5,3.31-5.32,5.02c1.93,0.26,3.54,0.45,5.32,0.68V710.04z"/>
					<path class="st1" d="M391.91,740.67c-0.22-0.55-0.5-1.09-0.76-1.62c-0.36,0.66-0.42,1.28-0.54,1.88
						c-0.25,1.23-0.44,2.47-0.82,3.66c-0.58,1.78-1,1.91-2.77,1.19c-1.46-0.61-2.96-1.1-4.63-1.12v3.38c0.7,0.04,1.31,0.1,1.93,0.12
						c1.7,0.06,3.41,0.11,5.12,0.13c1.01,0.01,1.75,0.42,2.24,1.29c2.61,4.65,3.95,9.57,3.11,14.92c-0.25,1.62-0.73,3.2-1.1,4.78
						c0.07,0.06,0.13,0.12,0.2,0.16c0.85-0.96,1.77-1.86,2.52-2.9c0.4-0.55,0.69-1.33,0.71-2.01c0.02-1.82-0.01-3.66-0.21-5.47
						C396.18,752.69,394.33,746.6,391.91,740.67z"/>
					<path class="st1" d="M494.51,736.1c-7.65-1-15.05-1.96-22.44-2.92c-4.18-0.56-8.37-1.05-12.52-1.72
						c-4.03-0.65-7.59-2.22-10.59-4.74c-0.72-0.61-1.43-1.28-2.07-2.01c-0.24-0.27-0.5-0.54-0.72-0.83
						c-1.73-2.11-3.36-4.31-4.89-6.58c-3.67-5.48-7.19-11.07-10.9-16.53c-2.69-3.95-5.64-7.72-9.1-11.06
						c-2.56-2.47-5.52-4.26-9.02-4.95c-2.62-0.51-5.29-0.93-7.94-1.02c-4.79-0.2-9.58-0.16-14.38-0.13
						c-40.87,0.19-81.76,0.4-122.63,0.62c-1.71,0-3.44-0.01-5.13,0.12c-1.05,0.09-2.1,0.23-3.11,0.44
						c-0.52,0.11-1.04,0.23-1.55,0.39c-0.01,0-0.04,0.01-0.06,0.01c-1.18,0.35-2.33,0.84-3.42,1.51c-6.27,3.8-9.59,9.39-9.97,16.69
						c-0.23,4.5-0.58,8.98-0.57,13.46c0.01,7.32,0.05,18.75,0.1,31.09h0.01c-0.04,10.39-0.07,20.37-0.1,28.14
						c0.49-0.72,1.11-1.66,1.22-1.82c4.25-6.41,10.17-10.31,17.71-11.78c4.71-0.91,9.32-0.65,13.66,1.56
						c4.47,2.25,7.41,5.81,8.45,10.76c0.16,0.65,0.11,1.39-0.09,2.01c-0.39,1.25-1.36,1.62-2.56,1.06
						c-0.63-0.29-1.18-0.69-1.82-0.94c-3.34-1.33-6.57,0.97-6.15,4.37c0.61,5.26,5.84,9.9,11.15,9.64c1.63-0.09,2.66,0.45,3.76,1.46
						c1.58,1.46,3.2,2.95,5.02,4.11c4.95,3.19,12.27,2.22,17.81-2.67c-0.63-0.44-1.21-0.9-1.82-1.28c-1.96-1.13-3.29-2.77-3.96-4.93
						c-0.39-1.32-0.86-2.62-1.08-3.96c-0.44-2.58-0.85-5.17-1.04-7.77c-0.15-2.28,1.04-3.2,3-2.7c1.47,0.39,3.01,0.54,4.69,0.82
						c0.83-1.58,1.62-3.12,2.53-4.89c-0.83-0.11-1.36-0.22-1.92-0.24c-2.84-0.12-5.69-0.26-8.53-0.35c-0.77-0.02-1.55-0.02-1.9-0.85
						c-0.32-0.77-0.05-1.46,0.41-2.08c0.15-0.17,0.3-0.34,0.45-0.52c6.7-8.75,9.03-18.48,6.7-29.3c-0.33-1.57-0.74-3.09-2-4.25
						c-0.61-0.54-0.49-1.24-0.09-1.86c0.43-0.63,1.08-0.66,1.69-0.39c0.61,0.27,1.19,0.66,1.73,1.08c0.65,0.51,1.29,0.66,2.06,0.3
						c2.89-1.32,5.79-2.64,8.69-3.97c0.65-0.29,0.9-0.76,0.93-1.49c0.01-1.88,0.15-3.74,0.19-5.63c0.13-5.3,0.24-10.59,0.39-15.9
						c0.02-0.56,0.07-1.15,0.29-1.66c0.33-0.79,1.1-0.82,1.58-0.1c0.22,0.32,0.34,0.71,0.55,1.13c2.36-0.6,4.65-0.5,6.87,0.48
						c0.83,0.38,1.64,0.8,2.44,1.24c2.07,1.17,4.25,1.52,6.59,0.91c0.43-0.11,0.91-0.01,1.46-0.01c-1.86,3.23-5.57,5.02-8.91,4.42
						c-0.9-0.17-1.77-0.43-2.66-0.62c-2.13-0.48-4.04-0.01-5.84,1.32c0.12,4.5,0.24,8.97,0.38,13.74c4.17-2.33,8.05-4.59,11.45-7.04
						c-0.15-0.95-0.43-1.62-0.28-2.17c0.23-0.85,1.07-0.9,1.85-0.88c0.22,0.01,0.46-0.01,0.67,0.05c1.06,0.28,1.91-0.07,2.67-0.74
						c2.17-1.95,4.3-3.92,6.48-5.84c1.24-1.08,1.75-2.36,1.73-4.03c-0.06-4.51,0.02-9,0.07-13.5c0-0.62,0.02-1.3,0.33-1.82
						c0.23-0.39,0.88-0.74,1.34-0.77c0.38-0.01,0.85,0.46,1.13,0.84c0.24,0.33,0.27,0.83,0.4,1.29c0.45-0.11,0.84-0.22,1.22-0.33
						c2.16-0.6,4.29-0.52,6.37,0.29c1.12,0.43,2.22,0.89,3.34,1.32c2.44,1,4.87,1.02,7.31-0.02c0.34-0.15,0.71-0.19,1.29-0.37
						c-0.07,0.76-0.11,1.29-0.18,1.84c-0.21,1.92-0.46,3.85-0.63,5.77c-0.13,1.45,0.12,2.84,0.77,4.15
						c0.12,0.23,0.17,0.51,0.24,0.72c-1.07,0.99-1.72,1.3-3.06,1.57c-2.49,0.5-4.87,0.05-7.21-0.78c-1.45-0.52-2.89-1.1-4.37-1.47
						c-1.74-0.45-3.5-0.37-5.03,0.61c-0.56,2.06-0.02,3.64,1.75,4.76c0.48,0.3,0.89,0.71,1.35,1.06
						c6.53,4.98,13.57,9.19,20.99,12.76c0.26,0.11,0.51,0.16,0.88,0.28c0.05-0.39,0.09-0.66,0.1-0.93
						c0.12-5.35,0.24-10.71,0.35-16.07c0.01-0.39,0-0.79,0.04-1.19c0.06-0.65,0.4-1.07,1.05-1.18c0.66-0.12,1.07,0.21,1.29,0.82
						c0.12,0.3,0.22,0.62,0.34,0.96c0.3-0.02,0.52-0.01,0.74-0.07c2.45-0.62,4.74-0.26,6.9,1.06c0.77,0.48,1.58,0.9,2.33,1.44
						c3.05,2.18,6.32,2.7,9.89,1.56c0.41-0.13,0.9-0.11,1.6-0.21c-0.9,1.74-2.28,2.49-3.47,3.4c-1.9,1.45-4.07,2.13-6.42,1.78
						c-1.56-0.24-3.16-0.6-4.61-1.18c-2.57-1.04-4.76-0.34-7.04,0.96c0.12,3,0.22,5.96,0.38,8.91c0.04,0.48,0.29,0.99,0.57,1.38
						c0.85,1.21,1.75,2.39,2.72,3.52c0.34,0.41,0.84,0.85,1.32,0.95c1.23,0.22,2.02,0.94,2.33,2.02c0.63,2.14,2.1,3.59,3.73,4.97
						c0.77,0.66,1.5,1.4,2.23,2.11c8.27,8.1,16.53,16.2,24.8,24.29c0.57,0.56,1.21,1.05,1.83,1.55c0.57,0.47,1.17,0.56,1.89,0.21
						c1.07-0.51,2.21-0.94,3.3-1.38c0.49-0.19,0.97-0.37,1.47-0.43c0.74-0.11,1.38,0.17,1.66,0.91c0.28,0.74-0.02,1.35-0.62,1.79
						c-0.4,0.3-0.88,0.55-1.33,0.78c-3.95,2.03-7.83,4.18-11.84,6.1c-4.95,2.33-9.26,5.57-13.51,8.93
						c-4.17,3.29-6.65,7.74-8.72,12.49c-0.01,0.06,0,0.13,0.01,0.16c1.94,0.35,3.85,0.56,5.68,1.07c1.41,0.4,2.7,1.21,4.07,1.79
						c1.82,0.79,3.61,1.73,5.48,2.33c4.52,1.46,9.94-0.24,12.46-3.78c2.55-3.57,1.05-7.88-3.18-9.03c-0.93-0.24-1.92-0.23-2.89-0.24
						c-1.57-0.02-2.18-0.78-1.72-2.29c0.17-0.52,0.43-1.05,0.74-1.52c3.08-4.67,7.41-7.04,13-6.69c5.9,0.38,10.2,3.29,12.71,8.69
						c0.16,0.32,0.28,0.65,0.43,1.01l0.74-1.11c1.52-2.28,3.16-4.48,4.89-6.59c3.47-4.22,8-6.71,13.38-7.58
						c1.74-0.28,3.51-0.52,5.26-0.77c2.42-0.33,4.84-0.62,7.26-0.94c7.29-0.96,14.91-1.91,22.44-2.9c-0.01-0.23-0.02-0.47-0.02-0.63
						c0-0.07,0.01-0.13,0.02-0.13V736.1z M281.11,692.21c-2.46,0.37-4.95,0.73-7.43,0.99c-2.83,0.29-5.7,0.27-8.5,0.72
						c-5.4,0.85-9.12,3.86-10.84,9.17c-0.93,2.85-0.97,5.82-1.27,8.76c-0.39,3.92-0.69,7.83-1.13,11.73
						c-0.12,1.19-0.11,2.53-1.32,3.41c-1.16-0.43-1.24-1.45-1.33-2.38c-0.27-3.28-0.57-6.58-0.68-9.88
						c-0.12-3.58-0.15-7.18,0.63-10.71c0.51-2.36,1.3-4.61,2.55-6.68c2.79-4.61,7.02-7.1,12.22-7.86
						c5.79-0.85,11.59-0.63,17.31,0.68c0.62,0.13,1.21,0.45,1.88,0.71C282.69,691.93,281.88,692.1,281.11,692.21z M430.19,716.24
						c-1.6-0.82-2.85-2.07-3.93-3.47c-1.73-2.27-3.35-4.6-5.13-6.82c-1.63-2.05-3.37-4.01-5.13-5.95
						c-2.74-3.03-6.21-4.74-10.22-5.37c-3.83-0.6-7.65-1.13-11.48-1.77c-1.06-0.17-2.25-0.21-3.03-1.29
						c0.56-0.89,1.49-0.93,2.29-1.01c4.87-0.55,9.76-0.72,14.64,0.01c2.92,0.44,5.57,1.58,7.93,3.36c2.75,2.06,5.17,4.48,7.24,7.21
						c2.06,2.72,4.02,5.53,5.88,8.38c0.86,1.32,1.45,2.83,2.1,4.28c0.21,0.45,0.29,0.99,0.3,1.49
						C431.71,716.44,431.21,716.77,430.19,716.24z M486.4,743.43c-1.27,0.23-2.59,0.43-3.89,0.37c-6.08-0.28-12.12-0.97-18.07-2.35
						c-0.95-0.22-1.89-0.5-2.77-0.88c-0.6-0.24-1.08-0.71-1.74-1.15c0.91-1.27,1.99-1.32,2.97-1.29c3.47,0.05,6.96,0.06,10.4,0.38
						c3.85,0.35,7.68,1,11.49,1.58c1.34,0.22,2.66,0.62,3.51,1.8C488.08,742.98,487.22,743.29,486.4,743.43z"/>
					<path class="st1" d="M528.8,734.31c-3.36,0.59-6.76,1.19-10.38,1.83c0.15,6.3,0.3,12.48,0.44,18.71
						c-0.01,0.04-0.02,0.07-0.02,0.11l-0.03,4.23v0.12c-0.01,0.04-0.01,0.08-0.02,0.12c0,0.01,0,0.01,0,0.01v4.41
						c0.02,0.01,0.04,0.01,0.07,0.02c1.19,0.29,2.37,0.59,3.6,0.74c0.35,0.1,0.72,0.16,1.09,0.23c0.68,0.13,1.36,0.26,2.04,0.35
						c0.01,0,0.02,0.01,0.02,0.01l-0.17-0.02c0.08,0.01,0.16,0.03,0.25,0.05c0.04,0.01,0.07,0.02,0.11,0.03
						c0.29,0.08,0.58,0.14,0.87,0.18c0.09,0.02,0.17,0.03,0.26,0.04v0.03c0.8,0.06,1.39,0.1,1.93,0.14
						c3.59-9.37,2.75-27.11-0.02-31.26C528.83,734.36,528.82,734.33,528.8,734.31z M524.23,743.77c-0.97-0.01-1.5-0.52-1.49-1.43
						c0.01-1.08,1.24-1.97,2.73-1.98c0.91-0.02,1.55,0.58,1.53,1.42C527,742.77,525.59,743.79,524.23,743.77z"/>
					<path class="st1" d="M376.79,723.81c-0.3-0.16-0.61-0.32-0.91-0.47c-7.6-3.7-14.82-8.02-21.56-13.14
						c-0.16-0.12-0.38-0.19-0.68-0.35v6.3c0.76,0.12,1.43,0.24,2.1,0.34c1.52,0.21,3.05,0.42,4.57,0.63
						c0.84,0.11,1.48,0.54,1.92,1.27c3.21,5.25,4.55,10.77,2.42,16.79c-1.03,2.94-1.33,3.08-4.15,1.91
						c-2.15-0.9-4.35-1.61-6.75-1.72v3.94c0.52,0.06,0.91,0.11,1.31,0.14c3.34,0.29,6.69,0.61,10.04,0.83
						c1.76,0.12,2.83,0.92,3.41,2.58c0.57,1.61,1.28,3.15,1.94,4.78c2.6,0.03,5.13,0.35,7.7,0.26v-3.35
						c-1.86,0.3-3.6,0.58-5.34,0.86c-0.34,0.05-0.68,0.17-1.01,0.18c-1.39,0.05-1.96-0.75-1.46-2.08c0.3-0.8,0.71-1.56,0.98-2.36
						c1.51-4.35,1.3-8.5-1.52-12.33c-0.26-0.37-0.41-0.96-0.33-1.38c0.12-0.67,0.78-0.77,1.37-0.74c1.14,0.05,2.28,0.16,3.41,0.23
						c1.34,0.1,2.68,0.21,3.99,0.31C378.63,724.77,378.63,724.77,376.79,723.81z"/>
					<path class="st1" d="M511.91,730.78c-0.02-0.03-0.05-0.06-0.08-0.09c-0.03-0.05-0.07-0.09-0.12-0.12
						c-0.35-0.34-0.89-0.49-1.66-0.51c-2.39-0.08-4.78-0.07-7.17,0c-1.63,0.05-2.36,0.8-2.52,2.43c-0.09,0.96-0.06,1.93-0.04,2.9
						c0.09,7.22,0.21,14.44,0.28,21.66c0.04,3.42-0.03,6.83,0.01,10.24c0.01,0.65,0.08,1.14,0.26,1.51c0,0.03,0.02,0.06,0.03,0.08
						c0.34,0.61,1,0.82,2.18,0.86c1.37,0.05,2.74,0.07,4.11,0.07c1.19,0,2.39-0.02,3.58-0.09c0.93-0.04,1.44-0.59,1.56-1.51
						c0.06-0.45,0.11-0.91,0.12-1.36c0.17-5.69,0.34-11.37,0.5-16.92c-0.21-5.94-0.4-11.74-0.61-17.53
						C512.31,731.69,512.18,731.16,511.91,730.78z"/>
				</g>
			</g>
			<g>
				<path class="st1" d="M537.84,729.57c-0.38-0.89-0.88-1.75-1.47-2.54l-0.04-0.05l-0.04-0.05c-0.32-0.4-0.64-0.76-0.98-1.07
					c-1.91-1.85-4.39-2.82-7.18-2.82c-0.81,0-1.66,0.08-2.52,0.25c-0.93,0.18-1.87,0.37-2.81,0.56c-0.5,0.1-1,0.21-1.5,0.31
					c-0.33-0.57-0.71-1.11-1.12-1.61l-0.12-0.14l-0.12-0.13l-0.06-0.06c-0.12-0.14-0.25-0.27-0.37-0.39
					c-0.46-0.47-0.96-0.9-1.48-1.26c-1.74-1.26-3.87-2.03-6.31-2.29l-0.28-0.03c-0.84-0.09-1.79-0.19-2.84-0.19
					c-0.22,0-0.45,0-0.67,0.01l-1.47,0.05c-2.77,0.1-5.64,0.2-8.53,0.48c-3.4,0.31-6.25,2.06-8.13,4.92
					c-1.71-0.21-3.36-0.41-5.02-0.63c-4.03-0.53-8.13-1.1-12.09-1.65l-2.07-0.29l-2.36-0.33c-2.85-0.4-5.8-0.81-8.66-1.27
					c-0.88-0.14-1.67-0.44-2.45-0.92c-0.12-0.08-0.23-0.16-0.35-0.24c-0.42-0.3-0.83-0.65-1.22-1.03l-0.57-0.57
					c-1.57-1.64-3.05-3.54-4.49-5.79c-0.65-1.01-1.3-2.04-1.95-3.07c-1.49-2.36-3.03-4.8-4.62-7.19
					c-3.43-5.18-7.6-11.21-12.53-16.78c-5.46-6.17-12.2-9.93-20.02-11.18c-4.41-0.7-8.78-0.79-12.09-0.79c-0.39,0-0.77,0-1.16,0
					c-7.37,0.04-14.85,0.1-22.09,0.15c-9.2,0.07-18.72,0.15-28.08,0.18c-16.24,0.06-32.75,0.1-48.72,0.14
					c-10.84,0.03-21.68,0.05-32.52,0.08c-2.5,0.01-4.44,0.09-6.29,0.24c-1.4,0.12-2.75,0.32-4.03,0.58
					c-0.4,0.08-0.81,0.18-1.21,0.27l-0.07,0.02l-0.08,0.02c-0.53,0.14-1.06,0.29-1.63,0.45l-0.03,0.01l-0.03,0.01
					c-0.48,0.15-0.94,0.3-1.37,0.46c-0.15,0.05-0.3,0.11-0.46,0.17h-0.06l-1.14,0.48c-0.48,0.2-0.98,0.44-1.49,0.69
					c-3.36,1.66-6.39,3.98-8.99,6.88c-4.66,5.2-7.21,10.63-7.78,16.61c-0.4,4.13-0.9,9.28-0.88,14.36
					c0.04,11.72,0.12,23.65,0.19,35.18l0,0.06l0,0.6c-0.07,10.99-0.15,23.89-0.19,36.83c-0.02,3.94,0.27,7.77,0.59,11.33l0.02,0.24
					c0.09,0.94,0.17,1.88,0.26,2.81c0.58,5.96,3.12,11.39,7.79,16.59c5.33,5.95,12.26,9.33,20.58,10.05
					c1.83,0.16,3.83,0.23,6.29,0.24c9.46,0.03,18.92,0.05,28.37,0.07c9.43,0.02,18.87,0.05,28.3,0.07
					c8.2,0.02,16.39,0.04,24.59,0.07c9.36,0.04,18.87,0.11,28.08,0.18c7.24,0.06,14.73,0.11,22.1,0.15c0.38,0,0.77,0,1.15,0
					c3.31,0,7.68-0.09,12.08-0.79c1.1-0.18,2.2-0.41,3.28-0.69c6.42-1.67,12.06-5.2,16.75-10.49c4.93-5.57,9.1-11.61,12.53-16.79
					c1.59-2.39,3.13-4.83,4.62-7.19c0.65-1.03,1.3-2.06,1.96-3.09c1.59-2.48,3.22-4.54,4.98-6.28c1.32-1.31,2.62-2.02,4.09-2.26
					c0.84-0.13,1.69-0.27,2.53-0.39l0.03,0l0.03,0c2.03-0.31,4.1-0.6,6.1-0.88l2.34-0.33l2.05-0.29c3.96-0.55,8.06-1.12,12.08-1.65
					c1.72-0.23,3.42-0.44,5.18-0.65c2.82,4.38,7.41,4.92,9.03,5.12c2.66,0.31,5.22,0.32,7.69,0.32c0.55,0,1.1,0,1.65,0.01l0.15,0
					c1.36,0,2.8-0.14,4.39-0.44c3.86-0.7,6.76-2.61,8.54-5.58c1.29,0.23,2.58,0.45,3.86,0.68c0.93,0.16,1.78,0.24,2.61,0.24
					c3.23,0,7.62-1.22,10.21-7.05c0.58-1.29,0.97-2.48,1.18-3.65l0.07-0.36c0.47-2.54,0.95-5.16,1.3-7.84
					c0.91-7.02,0.71-14.1-0.61-21.04C539.53,734.17,538.8,731.77,537.84,729.57z M534.62,756.97c-0.34,2.65-0.83,5.27-1.31,7.89
					c-0.14,0.77-0.42,1.53-0.75,2.25c-1.07,2.41-2.48,3.48-4.7,3.48c-0.48,0-1-0.05-1.57-0.15c-2.9-0.51-5.8-1.02-8.81-1.54
					c-0.12,0.4-0.25,0.76-0.33,1.13c-0.63,3.11-2.28,4.77-5.41,5.33c-1.08,0.2-2.2,0.34-3.29,0.34c-0.03,0-0.06,0-0.1,0
					c-2.9-0.02-5.82,0.05-8.68-0.29c-2.78-0.33-4.23-1.25-5.11-3.23c-0.07-0.12-0.12-0.25-0.16-0.39c-0.22-0.58-0.41-1.23-0.58-1.98
					c0-0.02-0.01-0.06-0.02-0.08c-0.15,0.03-0.29,0.06-0.33,0.06c0,0-0.01,0-0.01,0c-3.21,0.39-6.36,0.76-9.51,1.18
					c-4.73,0.62-9.47,1.29-14.19,1.95c-2.84,0.4-5.66,0.79-8.5,1.22c-0.88,0.12-1.76,0.26-2.64,0.4c-2.9,0.46-5.31,1.87-7.4,3.94
					c-2.24,2.22-4.13,4.68-5.82,7.32c-2.17,3.4-4.29,6.83-6.52,10.19c-3.71,5.59-7.56,11.08-12.01,16.12
					c-3.8,4.29-8.33,7.24-13.76,8.65c-0.88,0.23-1.78,0.42-2.7,0.57c-3.69,0.59-7.41,0.72-11.13,0.72c-0.37,0-0.75,0-1.12,0
					c-16.73-0.09-33.46-0.27-50.19-0.34c-8.2-0.03-16.4-0.06-24.6-0.07c-18.89-0.06-37.78-0.09-56.66-0.15
					c-1.93-0.01-3.87-0.06-5.79-0.22c-6.56-0.57-12.17-3.11-16.61-8.06c-3.38-3.76-5.78-8.05-6.27-13.15c-0.1-0.99-0.19-2-0.28-2.99
					c-0.32-3.59-0.58-7.18-0.57-10.77c0.04-12.5,0.12-24.99,0.2-37.48h-0.01c-0.07-11.74-0.15-23.49-0.19-35.22
					c-0.02-4.59,0.41-9.19,0.85-13.77c0.48-5.1,2.88-9.39,6.26-13.15c2.14-2.38,4.54-4.2,7.2-5.51c0.38-0.19,0.76-0.37,1.15-0.53
					c0.01,0,0.01,0,0.01,0c0.44-0.19,0.9-0.37,1.35-0.53c0.36-0.13,0.73-0.25,1.1-0.37c0.47-0.14,0.94-0.27,1.41-0.39
					c0.35-0.08,0.71-0.16,1.07-0.24c1.08-0.22,2.19-0.38,3.33-0.48c1.92-0.16,3.85-0.21,5.79-0.22c27.08-0.08,54.17-0.12,81.25-0.22
					c16.73-0.07,33.46-0.25,50.19-0.34c0.37,0,0.75,0,1.12,0c3.72,0,7.44,0.13,11.13,0.72c6.63,1.06,12.04,4.23,16.45,9.22
					c4.45,5.04,8.31,10.53,12.01,16.12c2.23,3.36,4.35,6.79,6.52,10.19c1.69,2.64,3.58,5.1,5.82,7.32c0.02,0.02,0.04,0.04,0.06,0.05
					c0.63,0.63,1.3,1.19,2,1.69c0.2,0.14,0.4,0.28,0.61,0.41c1.43,0.9,2.99,1.51,4.73,1.78c3.71,0.59,7.42,1.09,11.14,1.62
					c4.73,0.66,9.46,1.32,14.19,1.95c3.15,0.42,6.3,0.78,9.51,1.18c0.22-0.62,0.41-1.15,0.6-1.68c0.76-2.08,2.17-3.56,4.41-3.76
					c3.22-0.3,6.46-0.39,9.7-0.51c0.14-0.01,0.27-0.01,0.41-0.01c0.83,0,1.66,0.1,2.48,0.18c1.4,0.15,2.54,0.53,3.45,1.21
					c0.23,0.16,0.45,0.35,0.66,0.56c0.11,0.11,0.21,0.23,0.32,0.35c0.61,0.74,1.07,1.67,1.38,2.79c0.15,0.54,0.27,1.08,0.45,1.81
					c0.02,0,0.02-0.01,0.04-0.01c1.37-0.24,2.69-0.44,3.99-0.68c1.78-0.34,3.56-0.73,5.35-1.07c0.49-0.09,0.96-0.14,1.4-0.14
					c1.22,0,2.23,0.37,3.03,1.17c0.14,0.12,0.27,0.27,0.39,0.43c0.28,0.37,0.53,0.8,0.75,1.3c0.81,1.86,1.39,3.85,1.77,5.84
					C535.27,744.16,535.45,750.56,534.62,756.97z"/>
			</g>
		</g>
	</g>
</g>
<g>
	<path class="st1" d="M587.68,789.97c-7.47-3.79-13.31-9.12-17.52-15.99c-4.22-6.86-6.32-14.69-6.32-23.48
		c0-8.67,2.11-16.44,6.32-23.3c4.21-6.86,10.05-12.19,17.52-15.99c7.47-3.79,15.83-5.69,25.11-5.69c9.27,0,17.67,1.9,25.2,5.69
		c7.52,3.79,13.43,9.12,17.7,15.99c4.27,6.87,6.41,14.63,6.41,23.3c0,8.79-2.14,16.62-6.41,23.48c-4.28,6.86-10.18,12.19-17.7,15.99
		c-7.53,3.79-15.93,5.69-25.2,5.69C603.51,795.66,595.14,793.76,587.68,789.97z M635.37,771.9c5.78-5.48,8.67-12.61,8.67-21.41
		c0-8.79-2.89-15.92-8.67-21.41c-5.78-5.48-13.31-8.22-22.58-8.22c-9.28,0-16.77,2.71-22.49,8.13c-5.72,5.42-8.58,12.59-8.58,21.5
		c0,8.91,2.86,16.08,8.58,21.5c5.72,5.42,13.22,8.13,22.49,8.13C622.06,780.12,629.59,777.38,635.37,771.9z"/>
	<path class="st1" d="M695.51,789.88c-7.47-3.85-13.31-9.21-17.52-16.08c-4.22-6.86-6.32-14.63-6.32-23.3s2.14-16.41,6.41-23.21
		c4.27-6.8,10.14-12.13,17.61-15.99c7.47-3.85,15.83-5.78,25.11-5.78c6.98,0,13.64,1.21,19.96,3.61c6.32,2.41,11.89,5.84,16.71,10.3
		l-12.28,11.56c-2.89-3.13-6.44-5.6-10.66-7.41c-4.22-1.81-8.79-2.71-13.73-2.71c-9.27,0-16.8,2.74-22.58,8.22
		c-5.78,5.48-8.67,12.62-8.67,21.41c0,8.79,2.89,15.93,8.67,21.41c5.78,5.48,13.37,8.22,22.76,8.22c9.75,0,18.12-3.49,25.11-10.48
		l11.92,11.56c-5.06,4.7-10.75,8.28-17.07,10.75c-6.32,2.47-13.04,3.7-20.14,3.7C711.4,795.66,702.97,793.73,695.51,789.88z"/>
	<path class="st1" d="M855.74,757.18H783.3c1.32,7.11,4.73,12.77,10.21,16.98c5.48,4.22,12.31,6.32,20.5,6.32
		c10.36,0,19.63-3.61,27.82-10.84l10.84,11.56c-5.18,4.58-11.08,8.13-17.7,10.66c-6.62,2.53-13.55,3.79-20.77,3.79
		c-9.39,0-17.82-1.9-25.29-5.69c-7.47-3.79-13.31-9.15-17.52-16.08c-4.22-6.92-6.32-14.84-6.32-23.75c0-8.67,2.02-16.38,6.05-23.12
		c4.03-6.74,9.67-12.01,16.89-15.81c7.23-3.79,15.54-5.69,24.93-5.69c9.39,0,17.46,1.84,24.21,5.51c6.74,3.68,11.8,8.52,15.17,14.54
		c3.37,6.02,5.06,12.46,5.06,19.33C857.36,748.15,856.82,752.24,855.74,757.18z M793.14,726.29c-5.24,3.86-8.52,9.15-9.85,15.9
		h55.82c-0.36-6.26-2.86-11.44-7.5-15.54c-4.64-4.09-10.93-6.14-18.88-6.14C804.91,720.51,798.38,722.43,793.14,726.29z"/>
	<path class="st1" d="M962.98,793.49h-16.62v-7.23c-3.37,3.49-7.65,5.93-12.83,7.32c-5.18,1.38-11.38,2.08-18.61,2.08
		c-8.67,0-16.65-1.93-23.94-5.78c-7.29-3.85-13.07-9.21-17.34-16.08c-4.28-6.86-6.41-14.63-6.41-23.3s2.14-16.44,6.41-23.3
		c4.27-6.86,10.08-12.19,17.43-15.99c7.34-3.79,15.47-5.69,24.39-5.69c6.26,0,11.98,0.81,17.16,2.44c5.18,1.63,9.51,4.06,13.01,7.32
		v-7.77h17.34V793.49z M938.41,771.99c5.66-5.42,8.49-12.58,8.49-21.5c0-8.91-2.83-16.08-8.49-21.5c-5.66-5.42-13.13-8.13-22.4-8.13
		c-9.28,0-16.74,2.74-22.4,8.22c-5.66,5.48-8.49,12.62-8.49,21.41c0,8.79,2.83,15.93,8.49,21.41c5.66,5.48,13.12,8.22,22.4,8.22
		C925.29,780.12,932.75,777.41,938.41,771.99z"/>
	<path class="st1" d="M1041.71,709.94c5.78,2.95,10.33,7.11,13.64,12.46c3.31,5.36,4.97,11.53,4.97,18.52v52.57h-17.34v-51.12
		c0-6.74-2.08-12.01-6.23-15.81s-9.91-5.69-17.25-5.69c-4.58,0-8.91,0.88-13.01,2.62c-4.09,1.75-7.41,4.31-9.94,7.68
		c-2.53,3.37-3.79,7.41-3.79,12.1v50.22h-17.34V707.5h17.34v6.5c3.25-3.13,7.29-5.33,12.1-6.59c4.82-1.26,10.54-1.9,17.16-1.9
		C1029.36,705.51,1035.93,706.99,1041.71,709.94z"/>
	<path class="st1" d="M1075.41,693.77c-2.23-2.05-3.34-4.52-3.34-7.41c0-3.01,1.11-5.51,3.34-7.5c2.23-1.99,4.97-2.98,8.22-2.98
		c3.13,0,5.81,1.02,8.04,3.07c2.23,2.05,3.34,4.52,3.34,7.41c0,2.89-1.11,5.36-3.34,7.41c-2.23,2.05-4.91,3.07-8.04,3.07
		C1080.37,696.84,1077.63,695.82,1075.41,693.77z M1074.77,793.49V707.5h17.34v85.99H1074.77z"/>
	<path class="st1" d="M1194.82,757.18h-72.44c1.32,7.11,4.73,12.77,10.21,16.98c5.48,4.22,12.31,6.32,20.5,6.32
		c10.36,0,19.63-3.61,27.82-10.84l10.84,11.56c-5.18,4.58-11.08,8.13-17.7,10.66c-6.62,2.53-13.55,3.79-20.77,3.79
		c-9.39,0-17.82-1.9-25.29-5.69c-7.47-3.79-13.31-9.15-17.52-16.08c-4.22-6.92-6.32-14.84-6.32-23.75c0-8.67,2.02-16.38,6.05-23.12
		c4.03-6.74,9.67-12.01,16.89-15.81c7.23-3.79,15.54-5.69,24.93-5.69c9.39,0,17.46,1.84,24.21,5.51c6.74,3.68,11.8,8.52,15.17,14.54
		c3.37,6.02,5.06,12.46,5.06,19.33C1196.45,748.15,1195.9,752.24,1194.82,757.18z M1132.23,726.29c-5.24,3.86-8.52,9.15-9.85,15.9
		h55.82c-0.36-6.26-2.86-11.44-7.5-15.54c-4.64-4.09-10.93-6.14-18.88-6.14C1144,720.51,1137.47,722.43,1132.23,726.29z"/>
	<path class="st1" d="M1267.07,715.95l-2.49,7.65l-1.78-0.71c-2.85-1.07-6.23-1.6-10.15-1.6c-4.51,0-8.78,0.86-12.82,2.58
		c-4.04,1.72-7.3,4.24-9.79,7.56c-2.49,3.32-3.74,7.3-3.74,11.93v49.48h-17.09v-84.73h17.09v6.41c3.2-3.08,7.18-5.25,11.93-6.5
		c4.74-1.25,10.38-1.87,16.91-1.87c4.75,0,9.49,0.71,14.24,2.14l-0.53,1.78L1267.07,715.95z"/>
</g>
</svg>
