<?xml version="1.0" encoding="utf-8"?>
<!-- Generator: Adobe Illustrator 26.0.1, SVG Export Plug-In . SVG Version: 6.00 Build 0)  -->
<svg version="1.1" id="Layer_1" xmlns="http://www.w3.org/2000/svg" xmlns:xlink="http://www.w3.org/1999/xlink" x="0px" y="0px"
	 viewBox="0 0 1500 1500" style="enable-background:new 0 0 1500 1500;" xml:space="preserve">
<style type="text/css">
	.st0{fill:#011A2E;}
	.st1{fill:#AEEC01;}
</style>
<g>
	<g>
		<polyline class="st0" points="319.33,799.54 320.08,800.03 320.12,800.04 		"/>
		<g>
			<g>
				<path class="st0" d="M438.66,783.66c-3.4,5.11-6.69,10.31-10.15,15.38c-2.69,3.94-5.62,7.72-9.07,11.05
					c-2.56,2.47-5.51,4.26-9,4.93c-2.61,0.51-5.28,0.93-7.93,1.03c-4.77,0.19-9.56,0.16-14.34,0.13
					c-40.79-0.2-81.59-0.4-122.38-0.62c-1.7-0.01-3.42,0.01-5.11-0.13c-2.86-0.23-5.62-0.83-8.12-2.34
					c-6.27-3.8-9.57-9.37-9.95-16.66c-0.23-4.48-0.58-8.96-0.57-13.44c0.01-2.05,0.01-4.43,0.02-7.06c0.48-0.71,1.1-1.65,1.21-1.82
					c4.25-6.39,10.16-10.28,17.68-11.75c4.71-0.91,9.3-0.64,13.63,1.55c4.46,2.25,7.39,5.8,8.44,10.74c0.15,0.64,0.1,1.38-0.09,2
					c-0.39,1.26-1.36,1.63-2.56,1.06c-0.62-0.29-1.18-0.69-1.81-0.94c-3.34-1.32-6.55,0.97-6.14,4.37
					c0.61,5.25,5.82,9.88,11.13,9.62c1.62-0.09,2.65,0.44,3.76,1.45c1.58,1.46,3.19,2.94,5,4.1c4.94,3.18,12.24,2.21,17.78-2.67
					l9.25,5.89c0.21,0.21,0.47,0.38,0.76,0.48c0.39,0.16,0.85,0.21,1.38,0.17c2.67-0.21,5.31,0.21,7.94,0.78
					c4.13,0.91,7.73,2.94,11.21,5.23c1.4,0.92,1.37,0.87,2.82-0.03c2.41-1.51,4.77-3.14,7.3-4.4c5.72-2.89,11.6-3.39,17.56-0.62
					c0.42,0.21,0.85,0.35,1.25,0.56c0.9,0.49,1.76,0.45,2.76,0.16c1.51-0.43,3.05-0.79,4.59-1.13c0.35-0.02,0.7-0.06,1.04-0.16
					c0.93-0.1,1.87-0.24,2.7-0.7c0.08-0.04,0.16-0.09,0.24-0.15l0.16-0.12l10.94-7.31c1.93,0.35,3.84,0.56,5.66,1.08
					c1.41,0.4,2.7,1.2,4.06,1.78c1.81,0.8,3.6,1.73,5.47,2.33c4.51,1.45,9.92-0.25,12.43-3.77c2.54-3.56,1.04-7.86-3.17-9.01
					c-0.92-0.24-1.91-0.23-2.88-0.24c-1.58-0.03-2.19-0.79-1.72-2.29c0.16-0.53,0.43-1.04,0.74-1.52c3.08-4.65,7.4-7.03,12.98-6.67
					c5.88,0.38,10.17,3.28,12.68,8.67C438.38,782.97,438.51,783.3,438.66,783.66z"/>
				<g>
					<g>
						<g>
							<path class="st0" d="M533.02,737.82c-0.38-2-0.96-3.99-1.77-5.84c-0.21-0.5-0.47-0.93-0.75-1.3
								c-0.12-0.16-0.25-0.3-0.39-0.43c-1.08-1.08-2.56-1.38-4.43-1.03c-1.79,0.34-3.57,0.73-5.35,1.07
								c-1.31,0.25-2.62,0.44-3.99,0.68c-0.02,0-0.02,0.01-0.04,0.01c-0.18-0.72-0.3-1.27-0.45-1.81c-0.31-1.13-0.77-2.05-1.38-2.79
								c-0.11-0.12-0.21-0.24-0.32-0.35c-0.21-0.21-0.43-0.4-0.66-0.56c-0.91-0.67-2.05-1.06-3.45-1.21
								c-0.96-0.1-1.93-0.21-2.89-0.17c-3.24,0.12-6.48,0.21-9.7,0.51c-2.24,0.21-3.65,1.68-4.41,3.76
								c-0.19,0.53-0.38,1.05-0.6,1.68c-3.21-0.39-6.36-0.76-9.51-1.18c-4.73-0.62-9.47-1.29-14.19-1.95
								c-3.71-0.53-7.43-1.03-11.14-1.62c-1.74-0.27-3.3-0.89-4.73-1.78c-0.21-0.13-0.41-0.27-0.61-0.41c-0.7-0.5-1.36-1.06-2-1.69
								c-0.02-0.01-0.04-0.03-0.06-0.05c-2.24-2.22-4.13-4.68-5.82-7.32c-2.17-3.4-4.29-6.83-6.52-10.19
								c-3.71-5.59-7.56-11.08-12.01-16.12c-4.41-4.99-9.82-8.16-16.45-9.22c-4.07-0.65-8.16-0.74-12.25-0.71
								c-16.73,0.09-33.46,0.27-50.19,0.34c-27.09,0.11-54.17,0.14-81.25,0.22c-1.94,0.01-3.87,0.06-5.79,0.22
								c-1.14,0.1-2.25,0.25-3.33,0.48c-0.36,0.07-0.71,0.16-1.07,0.24c-0.48,0.12-0.95,0.25-1.41,0.39
								c-0.37,0.12-0.74,0.24-1.1,0.37c-0.45,0.16-0.9,0.35-1.35,0.53c0,0,0,0-0.01,0c-0.39,0.16-0.77,0.35-1.15,0.53
								c-2.65,1.31-5.06,3.13-7.2,5.51c-3.38,3.76-5.78,8.05-6.26,13.15c-0.44,4.58-0.87,9.17-0.85,13.77
								c0.04,11.74,0.12,23.48,0.19,35.22h0.01c-0.08,12.49-0.16,24.98-0.2,37.48c-0.02,3.59,0.25,7.18,0.57,10.77
								c0.09,0.99,0.18,2,0.28,2.99c0.49,5.1,2.89,9.39,6.27,13.15c4.44,4.95,10.05,7.49,16.61,8.06c1.92,0.16,3.86,0.21,5.79,0.22
								c18.89,0.06,37.78,0.09,56.66,0.15c8.2,0.02,16.4,0.04,24.6,0.07c16.73,0.07,33.46,0.25,50.19,0.34
								c4.09,0.02,8.19-0.07,12.25-0.71c0.93-0.15,1.82-0.34,2.7-0.57c5.42-1.41,9.95-4.36,13.76-8.65
								c4.45-5.04,8.31-10.53,12.01-16.12c2.23-3.36,4.35-6.79,6.52-10.19c1.69-2.64,3.58-5.1,5.82-7.32
								c2.09-2.07,4.5-3.48,7.4-3.94c0.88-0.14,1.76-0.28,2.64-0.4c2.84-0.43,5.66-0.81,8.5-1.22c4.73-0.66,9.46-1.32,14.19-1.95
								c3.15-0.42,6.3-0.78,9.51-1.18c0.01,0.01,0.17-0.02,0.34-0.06c0.01,0.02,0.02,0.06,0.02,0.08c0.16,0.75,0.35,1.41,0.58,1.98
								c0.05,0.14,0.1,0.27,0.16,0.39c0.88,1.98,2.33,2.9,5.11,3.23c2.86,0.34,5.78,0.26,8.68,0.29c1.13,0.01,2.28-0.13,3.39-0.34
								c3.12-0.57,4.77-2.23,5.41-5.33c0.08-0.37,0.21-0.72,0.33-1.13c3.01,0.53,5.91,1.04,8.81,1.54c3.15,0.55,4.96-0.39,6.26-3.33
								c0.33-0.72,0.61-1.48,0.75-2.25c0.48-2.62,0.98-5.24,1.31-7.89C534.4,750.56,534.22,744.16,533.02,737.82z M428.51,799.04
								c-2.69,3.94-5.62,7.72-9.07,11.05c-2.56,2.47-5.51,4.26-9,4.93c-2.61,0.51-5.28,0.93-7.93,1.03
								c-4.77,0.19-9.56,0.16-14.34,0.13c-40.79-0.2-81.59-0.4-122.38-0.62c-1.7-0.01-3.42,0.01-5.11-0.13
								c-2.86-0.23-5.62-0.83-8.12-2.34c-6.27-3.8-9.57-9.37-9.95-16.66c-0.23-4.48-0.58-8.96-0.57-13.44
								c0.02-8.12,0.06-21.27,0.11-35.14h-0.01c-0.05-12.32-0.08-23.72-0.1-31.02c-0.02-4.48,0.34-8.96,0.58-13.44
								c0.38-7.29,3.68-12.86,9.94-16.66c1.09-0.67,2.24-1.15,3.42-1.5c0.02-0.01,0.04-0.02,0.06-0.02
								c0.51-0.16,1.02-0.28,1.54-0.39c1.02-0.21,2.05-0.35,3.11-0.44c1.69-0.14,3.41-0.12,5.11-0.13
								c40.79-0.21,81.6-0.42,122.38-0.62c4.78-0.02,9.57-0.06,14.34,0.13c2.65,0.1,5.32,0.52,7.93,1.03c3.49,0.67,6.44,2.47,9,4.93
								c3.45,3.33,6.39,7.1,9.07,11.05c3.71,5.44,7.22,11.02,10.89,16.49c1.52,2.26,3.14,4.46,4.87,6.57
								c0.23,0.29,0.48,0.56,0.72,0.83c0.65,0.72,1.35,1.39,2.07,2.01c2.99,2.51,6.54,4.08,10.56,4.73
								c4.15,0.67,8.33,1.16,12.5,1.71c7.38,0.97,14.76,1.93,22.39,2.93v27.02c-0.01,0-0.02,0.06-0.02,0.14
								c0,0.16,0.01,0.4,0.02,0.63c-7.51,0.98-15.11,1.92-22.39,2.88c-2.42,0.32-4.83,0.62-7.25,0.95
								c-1.75,0.24-3.51,0.48-5.25,0.76c-5.37,0.86-9.89,3.35-13.35,7.56c-1.73,2.1-3.34,4.31-4.87,6.57
								c-0.25,0.37-0.49,0.74-0.74,1.11C435.25,788.78,431.97,793.97,428.51,799.04z M498.84,768.66c-0.18-0.36-0.25-0.85-0.26-1.5
								c-0.04-3.41,0.03-6.81-0.01-10.22c-0.07-7.21-0.19-14.41-0.28-21.61c-0.02-0.97-0.05-1.94,0.04-2.89
								c0.16-1.63,0.89-2.38,2.51-2.42c2.38-0.07,4.77-0.08,7.16,0c0.76,0.02,1.3,0.17,1.65,0.51c0.05,0.03,0.09,0.07,0.12,0.12
								c0.03,0.03,0.06,0.06,0.08,0.09c0.27,0.38,0.39,0.9,0.43,1.62c0.21,5.79,0.4,11.57,0.61,17.5
								c-0.16,5.54-0.33,11.21-0.5,16.89c-0.01,0.45-0.06,0.9-0.12,1.36c-0.12,0.91-0.62,1.46-1.55,1.5
								c-1.19,0.07-2.38,0.09-3.57,0.09c-1.36,0-2.74-0.02-4.1-0.07c-1.18-0.04-1.84-0.25-2.18-0.86
								C498.86,768.72,498.84,768.69,498.84,768.66z M516.37,736.07c3.61-0.64,7-1.23,10.35-1.82c0.02,0.02,0.03,0.05,0.05,0.07
								c2.76,4.14,3.6,21.84,0.02,31.2c-0.53-0.04-1.13-0.08-1.92-0.14v-0.03c-0.09-0.01-0.17-0.02-0.26-0.04
								c-0.3-0.04-0.58-0.1-0.87-0.18c-0.03-0.01-0.07-0.02-0.11-0.03c-0.08-0.02-0.16-0.04-0.25-0.05
								c0.06,0.01,0.11,0.02,0.17,0.02c-0.01,0-0.02-0.01-0.02-0.01c-0.68-0.1-1.36-0.22-2.04-0.35c-0.36-0.07-0.73-0.13-1.08-0.23
								c-1.22-0.15-2.4-0.45-3.59-0.74c-0.02-0.01-0.04-0.01-0.07-0.02v-4.4c0,0,0,0,0-0.01c0.01-0.04,0.01-0.08,0.02-0.12v-0.12
								l0.03-4.22c0-0.03,0.01-0.07,0.02-0.11C516.66,748.52,516.51,742.35,516.37,736.07z"/>
							<path class="st0" d="M523.4,740.27c-1.5,0.02-2.72,0.91-2.73,1.98c-0.01,0.91,0.52,1.42,1.49,1.43c1.35,0.01,2.75-1,2.77-2
								C524.95,740.85,524.31,740.26,523.4,740.27z"/>
						</g>
						<path class="st0" d="M281.63,690.91c-0.5,1.04-1.31,1.21-2.07,1.32c-2.47,0.37-4.94,0.74-7.43,0.99
							c-2.83,0.29-5.69,0.26-8.49,0.71c-5.38,0.86-9.1,3.86-10.81,9.15c-0.92,2.85-0.97,5.82-1.27,8.75
							c-0.39,3.9-0.7,7.81-1.12,11.71c-0.13,1.19-0.11,2.52-1.33,3.4c-1.15-0.43-1.24-1.45-1.32-2.37
							c-0.28-3.28-0.57-6.57-0.68-9.86c-0.12-3.58-0.15-7.16,0.63-10.69c0.52-2.35,1.3-4.59,2.55-6.65c2.78-4.6,7-7.09,12.19-7.85
							c5.78-0.85,11.57-0.63,17.28,0.68C280.38,690.33,280.96,690.65,281.63,690.91z"/>
						<path class="st0" d="M389.47,691.6c0.57-0.89,1.48-0.92,2.28-1.01c4.87-0.55,9.75-0.71,14.62,0.01
							c2.91,0.43,5.56,1.59,7.92,3.36c2.74,2.06,5.16,4.48,7.22,7.2c2.06,2.71,4.01,5.51,5.88,8.36c0.86,1.31,1.44,2.82,2.09,4.26
							c0.2,0.45,0.28,0.99,0.31,1.49c0.05,1.14-0.45,1.47-1.46,0.95c-1.6-0.82-2.85-2.07-3.93-3.47c-1.73-2.25-3.35-4.59-5.12-6.81
							c-1.63-2.04-3.36-4-5.12-5.93c-2.74-3.02-6.2-4.73-10.2-5.36c-3.81-0.6-7.64-1.13-11.45-1.76
							C391.45,692.72,390.25,692.68,389.47,691.6z"/>
						<path class="st0" d="M458.01,739.36c0.9-1.27,1.98-1.32,2.97-1.3c3.46,0.06,6.93,0.07,10.38,0.39c3.84,0.36,7.65,1,11.46,1.58
							c1.34,0.21,2.65,0.62,3.51,1.79c-0.24,1.08-1.11,1.38-1.91,1.53c-1.27,0.24-2.59,0.43-3.88,0.37
							c-6.08-0.28-12.1-0.98-18.04-2.35c-0.94-0.22-1.87-0.5-2.75-0.87C459.16,740.25,458.66,739.79,458.01,739.36z"/>
					</g>
				</g>
			</g>
		</g>
		<path class="st1" d="M427.91,762.12c-0.29-0.74-0.92-1.02-1.66-0.91c-0.5,0.07-0.99,0.24-1.46,0.43c-1.1,0.44-2.23,0.86-3.3,1.38
			c-0.72,0.35-1.31,0.26-1.89-0.21c-0.62-0.49-1.25-0.99-1.82-1.54c-8.26-8.07-16.5-16.16-24.75-24.24
			c-0.74-0.71-1.46-1.45-2.24-2.11c-1.62-1.36-3.08-2.82-3.71-4.96c-0.3-1.08-1.09-1.8-2.32-2.02c-0.48-0.09-0.98-0.53-1.32-0.95
			c-0.95-1.13-1.85-2.31-2.7-3.51c-0.28-0.39-0.54-0.9-0.58-1.37c-0.16-2.95-0.25-5.9-0.37-8.89c2.27-1.31,4.46-1.99,7.02-0.96
			c1.45,0.58,3.04,0.94,4.59,1.18c2.35,0.35,4.52-0.33,6.41-1.78c1.19-0.91,2.57-1.65,3.47-3.39c-0.7,0.09-1.18,0.07-1.59,0.21
			c-3.56,1.14-6.84,0.62-9.87-1.56c-0.75-0.53-1.55-0.95-2.33-1.43c-2.15-1.31-4.44-1.68-6.88-1.05c-0.21,0.06-0.44,0.05-0.74,0.07
			c-0.12-0.34-0.22-0.65-0.34-0.95c-0.22-0.61-0.64-0.95-1.3-0.82c-0.64,0.11-0.99,0.54-1.04,1.18c-0.03,0.39-0.02,0.8-0.03,1.19
			c-0.11,5.35-0.23,10.69-0.35,16.03c-0.01,0.27-0.05,0.53-0.1,0.92c-0.36-0.11-0.62-0.17-0.87-0.28
			c-7.4-3.56-14.43-7.75-20.96-12.73c-0.45-0.35-0.87-0.75-1.35-1.05c-1.78-1.12-2.3-2.7-1.74-4.75c1.53-0.98,3.28-1.06,5.02-0.61
			c1.48,0.38,2.92,0.95,4.36,1.46c2.33,0.83,4.71,1.28,7.19,0.78c1.34-0.26,1.98-0.58,3.05-1.57c-0.07-0.21-0.12-0.48-0.24-0.71
			c-0.64-1.31-0.9-2.7-0.76-4.14c0.17-1.92,0.42-3.85,0.63-5.77c0.07-0.54,0.11-1.08,0.18-1.83c-0.58,0.16-0.95,0.22-1.29,0.36
			c-2.43,1.05-4.86,1.02-7.3,0.03c-1.11-0.44-2.21-0.9-3.33-1.32c-2.08-0.81-4.21-0.89-6.35-0.29c-0.39,0.12-0.76,0.21-1.22,0.33
			c-0.13-0.46-0.16-0.96-0.4-1.29c-0.27-0.38-0.75-0.85-1.13-0.84c-0.46,0.02-1.1,0.38-1.33,0.77c-0.3,0.5-0.34,1.19-0.34,1.8
			c-0.05,4.49-0.13,8.98-0.07,13.48c0.02,1.67-0.48,2.94-1.73,4.02c-2.18,1.91-4.3,3.88-6.46,5.83c-0.76,0.67-1.61,1.03-2.66,0.74
			c-0.21-0.06-0.45-0.03-0.67-0.04c-0.77-0.02-1.61,0.02-1.85,0.87c-0.14,0.55,0.14,1.22,0.28,2.16c-3.39,2.44-7.27,4.71-11.42,7.03
			c-0.13-4.76-0.25-9.22-0.38-13.72c1.78-1.31,3.69-1.78,5.83-1.31c0.88,0.2,1.75,0.45,2.65,0.62c3.34,0.6,7.03-1.19,8.89-4.4
			c-0.55,0-1.04-0.1-1.46,0.01c-2.33,0.61-4.51,0.25-6.58-0.91c-0.79-0.44-1.6-0.86-2.43-1.24c-2.2-0.98-4.5-1.07-6.85-0.48
			c-0.21-0.43-0.33-0.81-0.54-1.13c-0.48-0.71-1.26-0.68-1.59,0.1c-0.21,0.51-0.26,1.09-0.29,1.66c-0.15,5.29-0.25,10.57-0.39,15.86
			c-0.06,1.88-0.18,3.75-0.2,5.62c-0.02,0.72-0.28,1.19-0.92,1.48c-2.89,1.33-5.79,2.65-8.67,3.97c-0.76,0.35-1.41,0.2-2.05-0.31
			c-0.54-0.42-1.12-0.81-1.73-1.08c-0.6-0.27-1.26-0.25-1.68,0.39c-0.4,0.62-0.52,1.32,0.08,1.87c1.26,1.15,1.67,2.67,2,4.24
			c2.32,10.79,0,20.51-6.69,29.24c-0.15,0.18-0.3,0.35-0.44,0.52c-0.47,0.62-0.73,1.31-0.41,2.08c0.35,0.82,1.13,0.83,1.89,0.85
			c2.84,0.1,5.68,0.22,8.51,0.35c0.56,0.02,1.09,0.13,1.91,0.24c-0.9,1.76-1.7,3.3-2.52,4.87c-1.68-0.28-3.21-0.43-4.68-0.81
			c-1.96-0.5-3.13,0.43-2.98,2.7c0.18,2.61,0.59,5.19,1.03,7.77c0.22,1.33,0.7,2.63,1.08,3.94c0.67,2.16,1.99,3.8,3.94,4.93
			c0.62,0.37,1.18,0.83,1.82,1.27l9.25,5.89c-0.25-0.23-0.44-0.53-0.62-0.88c-0.76-1.57-1.45-3.16-2.37-5.17
			c23.97,5.21,47.35,3.59,70.77-2.21c-0.26,0.77-0.56,1.41-0.94,1.93c-0.43,0.7-0.9,1.37-1.42,2.01c-0.67,0.82-1.28,1.68-1.93,2.52
			c-0.51,0.67-1.09,1.38-1.8,1.87c3.8,0.09,7.44-2.52,10.94-7.31c-0.02-0.02-0.03-0.1-0.02-0.16c2.07-4.74,4.55-9.18,8.71-12.46
			c4.24-3.35,8.54-6.59,13.48-8.92c3.99-1.91,7.88-4.06,11.82-6.09c0.45-0.23,0.92-0.48,1.32-0.77
			C427.88,763.46,428.18,762.86,427.91,762.12z M413.21,760.9c-0.06,0.12-0.1,0.22-0.16,0.34c-4.82-0.38-9.55-0.03-14.33,1.71
			c-0.16-6.75-1.54-13.13-3.48-19.5C401.22,749.27,407.22,755.08,413.21,760.9z M388,744.49c0.39-1.18,0.58-2.42,0.82-3.65
			c0.12-0.59,0.17-1.22,0.53-1.87c0.25,0.53,0.53,1.07,0.76,1.62c2.42,5.93,4.27,12,5,18.36c0.2,1.8,0.23,3.64,0.21,5.46
			c-0.02,0.67-0.3,1.45-0.71,2.01c-0.75,1.04-1.67,1.94-2.51,2.89c-0.07-0.04-0.13-0.1-0.2-0.16c0.36-1.59,0.85-3.16,1.09-4.77
			c0.84-5.34-0.5-10.25-3.11-14.89c-0.48-0.87-1.22-1.28-2.24-1.29c-1.71-0.02-3.41-0.07-5.11-0.13c-0.62-0.02-1.22-0.08-1.92-0.12
			v-3.38c1.67,0.02,3.16,0.51,4.62,1.12C387,746.4,387.42,746.26,388,744.49z M388.23,768.4c-6.48-1.41-12.66,0.15-19.02,2.47
			c2.48-6.86,2.53-13.37-0.88-19.82c0.54-0.03,0.86-0.09,1.18-0.07c5.33,0.16,10.68,0.37,16.03,0.48c1.21,0.02,1.82,0.49,2.3,1.55
			C390.15,758.03,390.32,763.08,388.23,768.4z M388.55,772.47c-2.11,2.57-4.31,4.67-7.92,4.5v-5.23
			C383.14,771.01,386.4,771.3,388.55,772.47z M329.56,775.59c0.39,0.68,1.18,0.46,1.86,0.26c2.71-0.84,5.42-1.67,8.15-2.48
			c0.52-0.16,1.06-0.21,1.81-0.35c-1.45,4.5-3.03,8.66-4.86,12.82c-1.19-0.66-1.95-1.49-2.44-2.53c-0.48-0.97-0.95-1.95-1.25-2.98
			c-0.44-1.42-1.37-2.13-2.79-2.39c-1.89-0.37-3.76-0.8-5.75-1.22v-6.25c1.97,0.46,3.84,0.89,5.92,1.36c-0.3,0.77-0.62,1.36-0.75,2
			C329.36,774.4,329.3,775.12,329.56,775.59z M339.22,785.4c1.36-3.91,2.74-7.82,4.14-11.73c0.22-0.59,0.24-1.41,1.41-1.29
			c-1.02,4.95-2.18,9.83-3.75,14.76c-0.74-0.12-1.39-0.23-2.17-0.38C338.99,786.22,339.07,785.8,339.22,785.4z M344.78,781.17
			c0.62-2.76,1.25-5.53,1.89-8.3c0.12-0.52,0.09-1.21,0.97-1.03c0.32,1.89,0.21,14.41-0.15,15.53h-4.06
			C343.9,785.24,344.33,783.2,344.78,781.17z M336.23,768.72c4.11-9.37,4.02-18.29-1.05-26.67l26.58,1.96
			c3.1,7.52,4.26,15.15,3.2,22.9C355.4,765.45,345.82,766.05,336.23,768.72z M352.09,771.43c0.63-0.35,1.25-0.47,1.48,0.5
			c1.18,4.81,2.33,9.6,3.47,14.41c0.02,0.1-0.03,0.21-0.1,0.56c-1.49,0.1-3.03,0.21-4.85,0.35V771.43z M355.48,771.25
			c1.17,0.57,3.62,6.87,6.28,15.09c-0.81,0.1-1.61,0.2-2.59,0.33C357.9,781.43,356.69,776.33,355.48,771.25z M358.38,771.03
			c2.17,0.16,4,0.3,6.12,0.47c-0.25,0.67-0.42,1.18-0.62,1.67c-0.21,0.48-0.56,0.92-0.61,1.4c-0.05,0.51,0.04,1.17,0.35,1.54
			c0.24,0.27,0.93,0.33,1.38,0.24c0.59-0.1,1.14-0.45,1.73-0.67c2.84-1,5.66-2.01,8.51-2.99c0.32-0.12,0.65-0.13,1.12-0.22v5.46
			c-1.94,0.3-3.87,0.73-5.83,0.87c-1.57,0.12-2.47,0.85-3.11,2.2c-0.52,1.07-1.18,2.08-1.86,3.06c-0.37,0.54-0.87,0.99-1.57,1.73
			C362.08,780.75,360.3,776.05,358.38,771.03z M382.28,730.9c0.53,0.07,1.18,0.53,1.47,0.99c1.83,3.03,2.44,6.31,1.7,9.79
			c-0.02,0.1-0.14,0.18-0.3,0.37c-3.9-1.28-7.94-0.98-12.23-0.39c0.97-3.96,1.24-7.8-0.39-11.8
			C376,730.21,379.15,730.5,382.28,730.9z M351.92,709.83c0.3,0.16,0.51,0.23,0.67,0.35c6.72,5.1,13.93,9.42,21.52,13.11
			c0.3,0.15,0.61,0.31,0.91,0.47c1.84,0.96,1.84,0.96,1.43,3.43c-1.3-0.11-2.64-0.21-3.98-0.31c-1.13-0.07-2.26-0.18-3.4-0.23
			c-0.58-0.03-1.25,0.07-1.36,0.74c-0.08,0.42,0.07,1.01,0.33,1.38c2.82,3.82,3.02,7.96,1.52,12.3c-0.27,0.81-0.67,1.56-0.98,2.36
			c-0.5,1.32,0.07,2.12,1.45,2.07c0.34-0.01,0.67-0.13,1.01-0.18c1.73-0.28,3.47-0.56,5.33-0.85v3.34
			c-2.56,0.08-5.09-0.23-7.68-0.26c-0.66-1.64-1.36-3.17-1.93-4.77c-0.58-1.65-1.64-2.45-3.4-2.57c-3.34-0.22-6.68-0.54-10.02-0.83
			c-0.4-0.03-0.79-0.08-1.31-0.14v-3.94c2.4,0.12,4.59,0.82,6.74,1.72c2.81,1.17,3.11,1.03,4.14-1.91
			c2.12-6.01,0.79-11.52-2.42-16.76c-0.44-0.73-1.08-1.16-1.91-1.27c-1.52-0.21-3.05-0.41-4.56-0.62c-0.67-0.1-1.34-0.22-2.1-0.34
			V709.83z M348.07,710.02v5.7c-1.78-0.23-3.39-0.43-5.31-0.68C344.57,713.33,346.22,711.76,348.07,710.02z M341.15,718.35
			c0.94,0.08,1.81,0.13,2.69,0.23c4.22,0.53,8.45,1.08,12.68,1.55c0.99,0.1,1.47,0.5,1.92,1.35c1.68,3.13,2.63,6.39,2.01,9.98
			c-0.05,0.34-0.11,0.67-0.2,1c-0.1,0.38-0.24,0.74-0.42,1.31c-6.2-3.01-12.59-2.46-19.2-1.31
			C342.85,725.27,342.86,724.77,341.15,718.35z M324.82,726.47c4.09-2.45,8.17-4.95,12.24-7.42c0.1-0.06,0.21-0.08,0.45-0.16
			c1.36,2.98,1.84,6.1,0.87,9.25c-0.62,1.99-1.67,3.84-2.53,5.74c-0.35,0.8-1.2,1.54-0.49,2.49c0.68,0.9,1.57,0.25,2.36,0.11
			c3.3-0.58,6.57-1.27,10.12-1.26v3.67c-2.05-0.13-4.14-0.25-6.22-0.4c-4.08-0.31-8.15-0.66-12.24-0.96
			c-0.55-0.05-1.14-0.05-1.68,0.07c-1.11,0.22-1.5,1.34-0.8,2.21c0.24,0.3,0.56,0.59,0.91,0.72c1.28,0.5,1.95,1.53,2.47,2.7
			c0.93,2.07,1.76,4.16,2.27,6.67c-0.53-0.36-0.84-0.55-1.12-0.78c-2.11-1.82-4.2-3.66-6.34-5.45c-0.66-0.56-0.98-1.17-0.98-2.04
			c-0.03-4.49-0.1-8.98-0.16-13.47C323.92,727.42,324.14,726.88,324.82,726.47z M320.42,728.83c0.03,3.54-0.16,6.88-0.23,10.25
			c-1.09-0.39-5.93-4.32-7.99-6.51C314.93,731.32,317.54,730.13,320.42,728.83z M305.79,764.84c5.23-8.4,7.31-17.35,5.82-27.27
			c0.56,0.35,0.93,0.55,1.24,0.82c6.35,5.34,12.68,10.72,19.07,16.02c1.28,1.07,1.73,2.23,1.64,3.85c-0.19,3.54-0.9,6.96-2.11,10.46
			C323.05,766,314.58,765.3,305.79,764.84z M319.91,769.78v6.03c-1.36-0.25-2.61-0.49-4.11-0.78c0.54-1.89,1.05-3.69,1.63-5.68
			C318.38,769.52,319.09,769.64,319.91,769.78z M314.1,769.68c0.2-0.47,0.58-0.69,1.27-0.28c-0.25,1.7-0.88,3.34-1.64,5.13
			c-0.43-0.05-0.71-0.05-0.98-0.1c-0.16-0.03-0.29-0.15-0.58-0.29C312.82,772.64,313.44,771.14,314.1,769.68z M392.19,783.33
			c-0.1,0.29-0.25,0.55-0.43,0.8c-0.04,0.07-0.07,0.14-0.11,0.21c-0.05,0.08-0.11,0.15-0.16,0.22c-0.2,0.42-0.44,0.81-0.74,1.17
			c-0.21,0.25-0.45,0.55-0.73,0.77c-0.84,1.08-2.29,1.64-3.6,1.96c-7,1.74-14.05,3.33-21.18,4.46c-10.46,1.68-20.95,1.82-31.45,0.46
			c-6.66-0.87-13.27-1.94-19.8-3.51c-0.55-0.13-1.11-0.28-1.64-0.47c-2.17-0.74-3.71-2.01-4.23-4.43c-0.5-2.33-1.22-4.6-1.43-7.26
			c0.67,0.08,1.19,0.12,1.72,0.21c6.14,1.22,12.24,2.5,18.4,3.63c1.28,0.25,2.07,0.75,2.44,1.96c0.12,0.38,0.35,0.72,0.52,1.08
			c1.82,3.9,4.97,5.98,9.13,6.57c2.31,0.32,4.64,0.59,6.96,0.59c5.41-0.01,10.79-0.53,16.15-1.23c4.08-0.53,6.74-2.84,8.6-6.25
			c0.59-1.09,1.32-1.49,2.5-1.67c7.19-1.09,14.35-2.38,21.41-4.17c0.27-0.07,0.54-0.13,1.06-0.25L392.19,783.33z M389.59,775.05
			c0.91-0.94,1.73-1.78,2.56-2.63c0.91-0.93,1.94-1.78,2.73-2.8c2.1-2.79,5.12-3.85,8.28-4.62c4.36-1.06,8.77-1.04,13.19-0.3
			c0.09,0.02,0.16,0.12,0.25,0.19C413.86,767.48,393.87,775.05,389.59,775.05z M333.17,799.27c4.9,0.31,9.78,0.62,14.78,0.94
			C344.64,802.63,335.54,802,333.17,799.27z M313.81,782.49c0.52,1.77,0.17,3.42-0.77,3.7s-2.13-0.93-2.65-2.7
			c-0.52-1.77-0.17-3.42,0.77-3.7C312.11,779.52,313.3,780.72,313.81,782.49z M320.13,783.76c0.52,1.77,0.17,3.42-0.77,3.7
			s-2.13-0.93-2.65-2.7c-0.52-1.77-0.17-3.42,0.77-3.7C318.43,780.78,319.61,781.99,320.13,783.76z M326.45,785.02
			c0.52,1.77,0.17,3.42-0.77,3.7c-0.95,0.28-2.13-0.93-2.65-2.7c-0.52-1.77-0.17-3.42,0.77-3.7
			C324.74,782.05,325.93,783.25,326.45,785.02z"/>
	</g>
	<g>
		<path class="st0" d="M582.69,791.87c-7.47-3.79-13.31-9.12-17.52-15.99c-4.22-6.86-6.32-14.69-6.32-23.48
			c0-8.67,2.11-16.44,6.32-23.3c4.21-6.86,10.05-12.19,17.52-15.99c7.47-3.79,15.83-5.69,25.11-5.69c9.27,0,17.67,1.9,25.2,5.69
			c7.52,3.79,13.43,9.12,17.7,15.99c4.27,6.87,6.41,14.63,6.41,23.3c0,8.79-2.14,16.62-6.41,23.48
			c-4.28,6.86-10.18,12.19-17.7,15.99c-7.53,3.79-15.93,5.69-25.2,5.69C598.52,797.57,590.15,795.67,582.69,791.87z M630.38,773.81
			c5.78-5.48,8.67-12.61,8.67-21.41c0-8.79-2.89-15.92-8.67-21.41c-5.78-5.48-13.31-8.22-22.58-8.22c-9.28,0-16.77,2.71-22.49,8.13
			c-5.72,5.42-8.58,12.59-8.58,21.5c0,8.91,2.86,16.08,8.58,21.5c5.72,5.42,13.22,8.13,22.49,8.13
			C617.07,782.03,624.6,779.29,630.38,773.81z"/>
		<path class="st0" d="M690.52,791.78c-7.47-3.85-13.31-9.21-17.52-16.08c-4.22-6.86-6.32-14.63-6.32-23.3s2.14-16.41,6.41-23.21
			c4.27-6.8,10.14-12.13,17.61-15.99c7.47-3.85,15.83-5.78,25.11-5.78c6.98,0,13.64,1.21,19.96,3.61
			c6.32,2.41,11.89,5.84,16.71,10.3l-12.28,11.56c-2.89-3.13-6.44-5.6-10.66-7.41c-4.22-1.81-8.79-2.71-13.73-2.71
			c-9.27,0-16.8,2.74-22.58,8.22c-5.78,5.48-8.67,12.62-8.67,21.41c0,8.79,2.89,15.93,8.67,21.41c5.78,5.48,13.37,8.22,22.76,8.22
			c9.75,0,18.12-3.49,25.11-10.48l11.92,11.56c-5.06,4.7-10.75,8.28-17.07,10.75c-6.32,2.47-13.04,3.7-20.14,3.7
			C706.41,797.57,697.98,795.64,690.52,791.78z"/>
		<path class="st0" d="M850.75,759.09h-72.44c1.32,7.11,4.73,12.77,10.21,16.98c5.48,4.22,12.31,6.32,20.5,6.32
			c10.36,0,19.63-3.61,27.82-10.84l10.84,11.56c-5.18,4.58-11.08,8.13-17.7,10.66c-6.62,2.53-13.55,3.79-20.77,3.79
			c-9.39,0-17.82-1.9-25.29-5.69c-7.47-3.79-13.31-9.15-17.52-16.08c-4.22-6.92-6.32-14.84-6.32-23.75c0-8.67,2.02-16.38,6.05-23.12
			c4.03-6.74,9.67-12.01,16.89-15.81c7.23-3.79,15.54-5.69,24.93-5.69c9.39,0,17.46,1.84,24.21,5.51
			c6.74,3.68,11.8,8.52,15.17,14.54c3.37,6.02,5.06,12.46,5.06,19.33C852.37,750.05,851.83,754.15,850.75,759.09z M788.15,728.2
			c-5.24,3.86-8.52,9.15-9.85,15.9h55.82c-0.36-6.26-2.86-11.44-7.5-15.54c-4.64-4.09-10.93-6.14-18.88-6.14
			C799.92,722.42,793.39,724.34,788.15,728.2z"/>
		<path class="st0" d="M957.99,795.4h-16.62v-7.23c-3.37,3.49-7.65,5.93-12.83,7.32c-5.18,1.38-11.38,2.08-18.61,2.08
			c-8.67,0-16.65-1.93-23.94-5.78c-7.29-3.85-13.07-9.21-17.34-16.08c-4.28-6.86-6.41-14.63-6.41-23.3s2.14-16.44,6.41-23.3
			c4.27-6.86,10.08-12.19,17.43-15.99c7.34-3.79,15.47-5.69,24.39-5.69c6.26,0,11.98,0.81,17.16,2.44
			c5.18,1.63,9.51,4.06,13.01,7.32v-7.77h17.34V795.4z M933.42,773.9c5.66-5.42,8.49-12.58,8.49-21.5c0-8.91-2.83-16.08-8.49-21.5
			c-5.66-5.42-13.13-8.13-22.4-8.13c-9.28,0-16.74,2.74-22.4,8.22c-5.66,5.48-8.49,12.62-8.49,21.41c0,8.79,2.83,15.93,8.49,21.41
			c5.66,5.48,13.12,8.22,22.4,8.22C920.3,782.03,927.76,779.32,933.42,773.9z"/>
		<path class="st0" d="M1036.72,711.85c5.78,2.95,10.33,7.11,13.64,12.46c3.31,5.36,4.97,11.53,4.97,18.52v52.57h-17.34v-51.12
			c0-6.74-2.08-12.01-6.23-15.81s-9.91-5.69-17.25-5.69c-4.58,0-8.91,0.88-13.01,2.62c-4.09,1.75-7.41,4.31-9.94,7.68
			c-2.53,3.37-3.79,7.41-3.79,12.1v50.22h-17.34v-85.99h17.34v6.5c3.25-3.13,7.29-5.33,12.1-6.59c4.82-1.26,10.54-1.9,17.16-1.9
			C1024.38,707.42,1030.94,708.9,1036.72,711.85z"/>
		<path class="st0" d="M1070.42,695.68c-2.23-2.05-3.34-4.52-3.34-7.41c0-3.01,1.11-5.51,3.34-7.5c2.23-1.99,4.97-2.98,8.22-2.98
			c3.13,0,5.81,1.02,8.04,3.07c2.23,2.05,3.34,4.52,3.34,7.41c0,2.89-1.11,5.36-3.34,7.41c-2.23,2.05-4.91,3.07-8.04,3.07
			C1075.39,698.75,1072.64,697.73,1070.42,695.68z M1069.78,795.4v-85.99h17.34v85.99H1069.78z"/>
		<path class="st0" d="M1189.83,759.09h-72.44c1.32,7.11,4.73,12.77,10.21,16.98c5.48,4.22,12.31,6.32,20.5,6.32
			c10.36,0,19.63-3.61,27.82-10.84l10.84,11.56c-5.18,4.58-11.08,8.13-17.7,10.66c-6.62,2.53-13.55,3.79-20.77,3.79
			c-9.39,0-17.82-1.9-25.29-5.69c-7.47-3.79-13.31-9.15-17.52-16.08c-4.22-6.92-6.32-14.84-6.32-23.75c0-8.67,2.02-16.38,6.05-23.12
			c4.03-6.74,9.67-12.01,16.89-15.81c7.23-3.79,15.54-5.69,24.93-5.69c9.39,0,17.46,1.84,24.21,5.51
			c6.74,3.68,11.8,8.52,15.17,14.54c3.37,6.02,5.06,12.46,5.06,19.33C1191.46,750.05,1190.91,754.15,1189.83,759.09z M1127.24,728.2
			c-5.24,3.86-8.52,9.15-9.85,15.9h55.82c-0.36-6.26-2.86-11.44-7.5-15.54c-4.64-4.09-10.93-6.14-18.88-6.14
			C1139.01,722.42,1132.48,724.34,1127.24,728.2z"/>
		<path class="st0" d="M1262.08,717.86l-2.49,7.65l-1.78-0.71c-2.85-1.07-6.23-1.6-10.15-1.6c-4.51,0-8.78,0.86-12.82,2.58
			c-4.04,1.72-7.3,4.24-9.79,7.56c-2.49,3.32-3.74,7.3-3.74,11.93v49.48h-17.09v-84.73h17.09v6.41c3.2-3.08,7.18-5.25,11.93-6.5
			c4.74-1.25,10.38-1.87,16.91-1.87c4.75,0,9.49,0.71,14.24,2.14l-0.53,1.78L1262.08,717.86z"/>
	</g>
</g>
</svg>
